<?xml version="1.0" encoding="UTF-8"?>
<svg xmlns="http://www.w3.org/2000/svg" xmlns:xlink="http://www.w3.org/1999/xlink" viewBox="0 0 50 50" width="50px" height="50px">
<g id="surface226463736">
<path style=" stroke:none;fill-rule:nonzero;fill:rgb(93.333334%,24.313726%,32.941177%);fill-opacity:1;" d="M 6.5 13.5 C 5.949219 13.5 5.5 13.949219 5.5 14.5 C 5.5 15.050781 5.949219 15.5 6.5 15.5 C 7.050781 15.5 7.5 15.050781 7.5 14.5 C 7.5 13.949219 7.050781 13.5 6.5 13.5 Z M 6.5 13.5 "/>
<path style=" stroke:none;fill-rule:nonzero;fill:rgb(94.509804%,73.725492%,9.803922%);fill-opacity:1;" d="M 38.5 6 C 38.222656 6 38 6.222656 38 6.5 C 38 6.777344 38.222656 7 38.5 7 C 38.777344 7 39 6.777344 39 6.5 C 39 6.222656 38.777344 6 38.5 6 Z M 38.5 6 "/>
<path style=" stroke:none;fill-rule:nonzero;fill:rgb(98.823529%,87.843138%,63.529414%);fill-opacity:1;" d="M 25 6.5 C 14.78125 6.5 6.5 14.78125 6.5 25 C 6.5 35.21875 14.78125 43.5 25 43.5 C 35.21875 43.5 43.5 35.21875 43.5 25 C 43.5 14.78125 35.21875 6.5 25 6.5 Z M 25 6.5 "/>
<path style=" stroke:none;fill-rule:nonzero;fill:rgb(94.509804%,73.725492%,9.803922%);fill-opacity:1;" d="M 41.5 5.5 C 40.394531 5.5 39.5 6.394531 39.5 7.5 C 39.5 8.605469 40.394531 9.5 41.5 9.5 C 42.605469 9.5 43.5 8.605469 43.5 7.5 C 43.5 6.394531 42.605469 5.5 41.5 5.5 Z M 41.5 5.5 "/>
<path style=" stroke:none;fill-rule:nonzero;fill:rgb(93.333334%,24.313726%,32.941177%);fill-opacity:1;" d="M 43.5 11 C 42.949219 11 42.5 11.449219 42.5 12 C 42.5 12.550781 42.949219 13 43.5 13 C 44.050781 13 44.5 12.550781 44.5 12 C 44.5 11.449219 44.050781 11 43.5 11 Z M 43.5 11 "/>
<path style=" stroke:none;fill-rule:nonzero;fill:rgb(98.431373%,80.392158%,34.901962%);fill-opacity:1;" d="M 40.5 37 C 39.949219 37 39.5 37.449219 39.5 38 C 39.5 38.550781 39.949219 39 40.5 39 C 41.050781 39 41.5 38.550781 41.5 38 C 41.5 37.449219 41.050781 37 40.5 37 Z M 7.5 29.5 C 6.394531 29.5 5.5 30.394531 5.5 31.5 C 5.5 32.605469 6.394531 33.5 7.5 33.5 C 8.605469 33.5 9.5 32.605469 9.5 31.5 C 9.5 30.394531 8.605469 29.5 7.5 29.5 Z M 7.5 29.5 "/>
<path style=" stroke:none;fill-rule:nonzero;fill:rgb(93.333334%,24.313726%,32.941177%);fill-opacity:1;" d="M 12.5 42.5 C 11.949219 42.5 11.5 42.949219 11.5 43.5 C 11.5 44.050781 11.949219 44.5 12.5 44.5 C 13.050781 44.5 13.5 44.050781 13.5 43.5 C 13.5 42.949219 13.050781 42.5 12.5 42.5 Z M 12.5 42.5 "/>
<path style=" stroke:none;fill-rule:nonzero;fill:rgb(100%,100%,100%);fill-opacity:1;" d="M 9.25 25.5 C 8.558594 25.5 8 26.058594 8 26.75 C 8 27.441406 8.558594 28 9.25 28 C 9.941406 28 10.5 27.441406 10.5 26.75 C 10.5 26.058594 9.941406 25.5 9.25 25.5 Z M 9.25 25.5 "/>
<path style=" stroke:none;fill-rule:nonzero;fill:rgb(94.509804%,73.725492%,9.803922%);fill-opacity:1;" d="M 10.5 33 C 10.222656 33 10 33.222656 10 33.5 C 10 33.777344 10.222656 34 10.5 34 C 10.777344 34 11 33.777344 11 33.5 C 11 33.222656 10.777344 33 10.5 33 Z M 10.5 33 "/>
<path style=" stroke:none;fill-rule:nonzero;fill:rgb(100%,100%,100%);fill-opacity:1;" d="M 40 16.5 C 39.722656 16.5 39.5 16.722656 39.5 17 C 39.5 17.277344 39.722656 17.5 40 17.5 C 40.277344 17.5 40.5 17.277344 40.5 17 C 40.5 16.722656 40.277344 16.5 40 16.5 Z M 40 16.5 "/>
<path style=" stroke:none;fill-rule:nonzero;fill:rgb(47.058824%,63.529414%,82.352942%);fill-opacity:1;" d="M 25 12.8125 C 18.304688 12.8125 12.875 18.242188 12.875 24.9375 C 12.875 31.632812 18.304688 37.0625 25 37.0625 C 31.695312 37.0625 37.125 31.632812 37.125 24.9375 C 37.125 18.242188 31.695312 12.8125 25 12.8125 Z M 25 12.8125 "/>
<path style=" stroke:none;fill-rule:nonzero;fill:rgb(27.843139%,16.862746%,16.078432%);fill-opacity:1;" d="M 34.082031 29.722656 C 34.046875 29.722656 34.007812 29.714844 33.972656 29.695312 C 33.847656 29.636719 33.796875 29.488281 33.859375 29.363281 C 33.921875 29.226562 33.984375 29.089844 34.046875 28.953125 C 34.273438 28.421875 34.457031 27.859375 34.589844 27.296875 C 34.621094 27.160156 34.753906 27.078125 34.886719 27.109375 C 35.023438 27.140625 35.105469 27.273438 35.074219 27.40625 C 34.9375 28.003906 34.746094 28.589844 34.503906 29.152344 C 34.441406 29.296875 34.375 29.441406 34.304688 29.582031 C 34.261719 29.671875 34.175781 29.722656 34.082031 29.722656 Z M 34.082031 29.722656 "/>
<path style=" stroke:none;fill-rule:nonzero;fill:rgb(27.843139%,16.862746%,16.078432%);fill-opacity:1;" d="M 35.132812 26.167969 C 35.125 26.167969 35.117188 26.167969 35.109375 26.167969 C 34.972656 26.15625 34.871094 26.03125 34.882812 25.894531 C 34.902344 25.679688 34.914062 25.46875 34.921875 25.253906 C 34.953125 23.917969 34.726562 22.617188 34.242188 21.375 C 34.191406 21.246094 34.253906 21.101562 34.382812 21.054688 C 34.511719 21 34.65625 21.066406 34.707031 21.195312 C 35.214844 22.496094 35.457031 23.867188 35.421875 25.265625 C 35.414062 25.492188 35.402344 25.714844 35.382812 25.941406 C 35.367188 26.070312 35.261719 26.167969 35.132812 26.167969 Z M 35.132812 26.167969 "/>
<path style=" stroke:none;fill-rule:nonzero;fill:rgb(27.843139%,16.862746%,16.078432%);fill-opacity:1;" d="M 17.554688 18.265625 C 17.492188 18.265625 17.429688 18.242188 17.382812 18.199219 C 17.28125 18.105469 17.277344 17.945312 17.371094 17.84375 C 19.070312 16.023438 21.371094 14.875 23.847656 14.609375 C 23.984375 14.597656 24.105469 14.691406 24.121094 14.828125 C 24.136719 14.964844 24.035156 15.089844 23.898438 15.105469 C 21.542969 15.359375 19.355469 16.453125 17.738281 18.1875 C 17.6875 18.238281 17.621094 18.265625 17.554688 18.265625 Z M 17.554688 18.265625 "/>
<path style=" stroke:none;fill-rule:nonzero;fill:rgb(27.843139%,16.862746%,16.078432%);fill-opacity:1;" d="M 18.070312 32.640625 C 18.007812 32.640625 17.945312 32.621094 17.898438 32.574219 C 14.347656 29.257812 13.539062 24.003906 15.929688 19.800781 C 16 19.679688 16.152344 19.636719 16.273438 19.707031 C 16.390625 19.773438 16.433594 19.925781 16.367188 20.046875 C 14.085938 24.050781 14.859375 29.050781 18.238281 32.210938 C 18.339844 32.304688 18.347656 32.460938 18.253906 32.5625 C 18.203125 32.613281 18.136719 32.640625 18.070312 32.640625 Z M 18.070312 32.640625 "/>
<path style=" stroke:none;fill-rule:nonzero;fill:rgb(27.843139%,16.862746%,16.078432%);fill-opacity:1;" d="M 29.445312 34.382812 C 29.351562 34.382812 29.261719 34.332031 29.21875 34.242188 C 29.160156 34.117188 29.210938 33.96875 29.335938 33.910156 C 30.4375 33.378906 31.421875 32.652344 32.261719 31.75 C 32.601562 31.386719 32.917969 30.996094 33.195312 30.589844 C 33.273438 30.476562 33.429688 30.445312 33.542969 30.523438 C 33.65625 30.601562 33.6875 30.757812 33.609375 30.871094 C 33.316406 31.300781 32.984375 31.710938 32.628906 32.09375 C 31.746094 33.039062 30.710938 33.800781 29.554688 34.359375 C 29.519531 34.375 29.480469 34.382812 29.445312 34.382812 Z M 29.445312 34.382812 "/>
<path style=" stroke:none;fill-rule:nonzero;fill:rgb(100%,100%,100%);fill-opacity:1;" d="M 23.230469 36.75 L 23.230469 28.25 L 20.21875 28.25 L 20.21875 25.261719 L 23.230469 25.261719 L 23.230469 22.152344 C 23.160156 19.363281 25.308594 16.652344 30.28125 18.15625 L 30.269531 20.792969 L 28.515625 20.78125 C 27.167969 20.78125 26.703125 21.210938 26.703125 22.152344 L 26.703125 25.261719 L 30.28125 25.261719 L 29.652344 28.25 L 26.703125 28.25 L 26.703125 36.75 "/>
<path style=" stroke:none;fill-rule:nonzero;fill:rgb(27.843139%,16.862746%,16.078432%);fill-opacity:1;" d="M 26.953125 36.75 L 26.453125 36.75 L 26.453125 28 L 29.449219 28 L 29.972656 25.511719 L 26.453125 25.511719 L 26.453125 22.152344 C 26.453125 21.03125 27.089844 20.53125 28.515625 20.53125 L 30.023438 20.539062 L 30.03125 18.34375 C 27.894531 17.734375 26.140625 17.886719 24.953125 18.789062 C 23.984375 19.53125 23.445312 20.753906 23.480469 22.148438 L 23.480469 25.511719 L 20.46875 25.511719 L 20.46875 28 L 23.480469 28 L 23.480469 36.75 L 22.980469 36.75 L 22.980469 28.5 L 19.96875 28.5 L 19.96875 25.011719 L 22.980469 25.011719 L 22.980469 22.152344 C 22.941406 20.601562 23.550781 19.230469 24.652344 18.390625 C 25.59375 17.671875 27.347656 17.007812 30.351562 17.917969 L 30.53125 17.96875 L 30.519531 21.042969 L 28.515625 21.03125 C 27.207031 21.03125 26.953125 21.441406 26.953125 22.152344 L 26.953125 25.011719 L 30.589844 25.011719 L 29.855469 28.5 L 26.953125 28.5 Z M 26.953125 36.75 "/>
<path style=" stroke:none;fill-rule:nonzero;fill:rgb(27.843139%,16.862746%,16.078432%);fill-opacity:1;" d="M 25 37.414062 C 18.121094 37.414062 12.523438 31.816406 12.523438 24.9375 C 12.523438 18.058594 18.121094 12.460938 25 12.460938 C 31.878906 12.460938 37.476562 18.058594 37.476562 24.9375 C 37.476562 31.816406 31.878906 37.414062 25 37.414062 Z M 25 13.164062 C 18.507812 13.164062 13.226562 18.445312 13.226562 24.9375 C 13.226562 31.429688 18.507812 36.710938 25 36.710938 C 31.492188 36.710938 36.773438 31.429688 36.773438 24.9375 C 36.773438 18.445312 31.492188 13.164062 25 13.164062 Z M 25 13.164062 "/>
<path style=" stroke:none;fill-rule:nonzero;fill:rgb(99.215686%,98.823529%,93.725491%);fill-opacity:1;" d="M 46.84375 39.34375 C 46.84375 43.484375 43.484375 46.84375 39.34375 46.84375 C 35.199219 46.84375 31.84375 43.484375 31.84375 39.34375 C 31.84375 35.199219 35.199219 31.84375 39.34375 31.84375 C 43.484375 31.84375 46.84375 35.199219 46.84375 39.34375 Z M 46.84375 39.34375 "/>
<path style=" stroke:none;fill-rule:nonzero;fill:rgb(27.843139%,16.862746%,16.078432%);fill-opacity:1;" d="M 39.34375 32.292969 C 43.230469 32.292969 46.394531 35.457031 46.394531 39.34375 C 46.394531 43.230469 43.230469 46.394531 39.34375 46.394531 C 35.457031 46.394531 32.292969 43.230469 32.292969 39.34375 C 32.292969 35.457031 35.457031 32.292969 39.34375 32.292969 M 39.34375 31.59375 C 35.0625 31.59375 31.59375 35.0625 31.59375 39.34375 C 31.59375 43.621094 35.0625 47.09375 39.34375 47.09375 C 43.621094 47.09375 47.09375 43.621094 47.09375 39.34375 C 47.09375 35.0625 43.621094 31.59375 39.34375 31.59375 Z M 39.34375 31.59375 "/>
<path style=" stroke:none;fill-rule:nonzero;fill:rgb(57.647061%,73.725492%,22.352941%);fill-opacity:1;" d="M 45.46875 39.34375 C 45.46875 42.726562 42.726562 45.46875 39.34375 45.46875 C 35.960938 45.46875 33.21875 42.726562 33.21875 39.34375 C 33.21875 35.960938 35.960938 33.21875 39.34375 33.21875 C 42.726562 33.21875 45.46875 35.960938 45.46875 39.34375 Z M 45.46875 39.34375 "/>
<path style=" stroke:none;fill-rule:nonzero;fill:rgb(71.764708%,80.000001%,41.960785%);fill-opacity:1;" d="M 39.34375 33.21875 C 35.964844 33.21875 33.21875 35.964844 33.21875 39.34375 C 33.21875 39.417969 33.226562 39.492188 33.230469 39.570312 C 33.816406 36.730469 36.328125 34.59375 39.34375 34.59375 C 42.359375 34.59375 44.867188 36.730469 45.457031 39.570312 C 45.460938 39.496094 45.46875 39.421875 45.46875 39.34375 C 45.46875 35.964844 42.71875 33.21875 39.34375 33.21875 Z M 39.34375 33.21875 "/>
<path style=" stroke:none;fill-rule:nonzero;fill:rgb(27.843139%,16.862746%,16.078432%);fill-opacity:1;" d="M 39.34375 33.34375 C 42.652344 33.34375 45.34375 36.035156 45.34375 39.34375 C 45.34375 42.652344 42.652344 45.34375 39.34375 45.34375 C 36.035156 45.34375 33.34375 42.652344 33.34375 39.34375 C 33.34375 36.035156 36.035156 33.34375 39.34375 33.34375 M 39.34375 33.09375 C 35.898438 33.09375 33.09375 35.898438 33.09375 39.34375 C 33.09375 42.789062 35.898438 45.59375 39.34375 45.59375 C 42.789062 45.59375 45.59375 42.789062 45.59375 39.34375 C 45.59375 35.898438 42.789062 33.09375 39.34375 33.09375 Z M 39.34375 33.09375 "/>
<path style=" stroke:none;fill-rule:nonzero;fill:rgb(27.843139%,16.862746%,16.078432%);fill-opacity:1;" d="M 42.34375 39.09375 L 39.59375 39.09375 L 39.59375 36.34375 C 39.59375 36.203125 39.480469 36.09375 39.34375 36.09375 C 39.203125 36.09375 39.09375 36.203125 39.09375 36.34375 L 39.09375 39.09375 L 36.34375 39.09375 C 36.203125 39.09375 36.09375 39.203125 36.09375 39.34375 C 36.09375 39.480469 36.203125 39.59375 36.34375 39.59375 L 39.09375 39.59375 L 39.09375 42.34375 C 39.09375 42.480469 39.203125 42.59375 39.34375 42.59375 C 39.480469 42.59375 39.59375 42.480469 39.59375 42.34375 L 39.59375 39.59375 L 42.34375 39.59375 C 42.480469 39.59375 42.59375 39.480469 42.59375 39.34375 C 42.59375 39.203125 42.480469 39.09375 42.34375 39.09375 Z M 42.34375 39.09375 "/>
</g>
</svg>
