<?xml version="1.0" standalone="no"?>
<!DOCTYPE svg PUBLIC "-//W3C//DTD SVG 20010904//EN"
 "http://www.w3.org/TR/2001/REC-SVG-20010904/DTD/svg10.dtd">
<svg version="1.0" xmlns="http://www.w3.org/2000/svg"
 width="512.000000pt" height="512.000000pt" viewBox="0 0 512.000000 512.000000"
 preserveAspectRatio="xMidYMid meet">

<g transform="translate(0.000000,512.000000) scale(0.100000,-0.100000)"
fill="#000000" stroke="none">
<path d="M2418 5088 c-111 -10 -262 -40 -364 -73 -114 -38 -328 -145 -430
-218 -133 -93 -325 -289 -412 -421 -236 -354 -329 -779 -257 -1184 76 -434
393 -996 856 -1517 228 -257 637 -635 711 -657 63 -19 100 0 238 119 761 656
1313 1473 1412 2088 16 102 16 387 -1 485 -61 360 -204 643 -452 897 -277 284
-660 461 -1034 478 -66 3 -133 7 -150 9 -16 1 -69 -1 -117 -6z m297 -663 c391
-63 706 -351 805 -735 31 -117 37 -287 16 -407 -68 -393 -354 -699 -746 -799
-60 -15 -109 -19 -240 -18 -148 1 -174 3 -255 27 -351 105 -600 361 -697 717
-32 122 -33 346 0 474 71 280 268 524 527 653 180 90 389 121 590 88z"/>
<path d="M2474 4061 c-284 -45 -501 -274 -530 -559 -6 -61 -4 -77 16 -117 38
-78 124 -106 200 -64 49 28 70 67 81 151 21 166 134 277 304 298 78 10 117 32
145 83 37 64 16 139 -51 189 -29 22 -96 29 -165 19z"/>
<path d="M1077 1859 c-145 -16 -262 -69 -326 -145 -47 -56 -718 -1249 -736
-1308 -19 -64 -19 -112 2 -176 22 -69 96 -150 165 -181 l53 -24 2325 0 2325 0
53 24 c138 62 214 228 167 362 -9 24 -172 323 -363 663 -362 645 -377 668
-471 719 -55 30 -174 64 -248 70 l-53 4 -57 -76 c-168 -225 -395 -483 -595
-677 -193 -187 -436 -395 -505 -431 -179 -96 -405 -81 -563 36 -137 101 -469
411 -643 599 -157 169 -266 299 -383 454 -41 54 -76 97 -77 97 -1 -1 -33 -5
-70 -10z"/>
</g>
</svg>
