<?xml version="1.0" encoding="UTF-8" standalone="no" ?>
<!DOCTYPE svg PUBLIC "-//W3C//DTD SVG 1.1//EN" "http://www.w3.org/Graphics/SVG/1.1/DTD/svg11.dtd">
<svg xmlns="http://www.w3.org/2000/svg" xmlns:xlink="http://www.w3.org/1999/xlink" version="1.1" width="400" height="400" viewBox="0 0 400 400" xml:space="preserve">
<desc>Created with Fabric.js 3.6.2</desc>
<defs>
</defs>
<g transform="matrix(5 0 0 5 200 200)" id="Layer_1"  >
<path style="stroke: none; stroke-width: 1; stroke-dasharray: none; stroke-linecap: butt; stroke-dashoffset: 0; stroke-linejoin: miter; stroke-miterlimit: 4; fill: rgb(149,149,149); fill-rule: nonzero; opacity: 1;"  transform=" translate(-20, -20)" d="M 20 2 c 9.925 0 18 8.075 18 18 s -8.074 18 -18 18 S 2 29.925 2 20 S 10.075 2 20 2 M 20 0 C 8.954 0 0 8.954 0 20 c 0 11.047 8.954 20 20 20 c 11.044 0 20 -8.953 20 -20 C 40 8.954 31.045 0 20 0 L 20 0 z" stroke-linecap="round" />
</g>
<g transform="matrix(5 0 0 5 200 203.4)" id="Layer_1"  >
<path style="stroke: none; stroke-width: 1; stroke-dasharray: none; stroke-linecap: butt; stroke-dashoffset: 0; stroke-linejoin: miter; stroke-miterlimit: 4; fill: rgb(149,149,149); fill-rule: evenodd; opacity: 1;"  transform=" translate(-20, -20.68)" d="M 12.537 10.641 h 14.926 c 1.416 0 2.576 1.159 2.576 2.577 v 14.925 c 0 1.418 -1.16 2.577 -2.576 2.577 H 12.537 c -1.417 0 -2.577 -1.159 -2.577 -2.577 V 13.218 C 9.96 11.8 11.12 10.641 12.537 10.641 L 12.537 10.641 z M 24.588 12.872 c -0.498 0 -0.904 0.407 -0.904 0.904 v 2.164 c 0 0.497 0.406 0.903 0.904 0.903 h 2.27 c 0.496 0 0.902 -0.406 0.902 -0.903 v -2.164 c 0 -0.497 -0.406 -0.904 -0.902 -0.904 H 24.588 L 24.588 12.872 z M 27.77 19.132 h -1.768 c 0.168 0.546 0.258 1.124 0.258 1.724 c 0 3.34 -2.795 6.047 -6.24 6.047 c -3.447 0 -6.243 -2.707 -6.243 -6.047 c 0 -0.6 0.091 -1.178 0.258 -1.724 h -1.844 v 8.482 c 0 0.439 0.358 0.799 0.798 0.799 h 13.983 c 0.438 0 0.797 -0.359 0.797 -0.799 V 19.132 L 27.77 19.132 z M 20.02 16.73 c -2.229 0 -4.034 1.749 -4.034 3.907 c 0 2.159 1.805 3.909 4.034 3.909 c 2.226 0 4.031 -1.75 4.031 -3.909 C 24.051 18.479 22.246 16.73 20.02 16.73 z" stroke-linecap="round" />
</g>
</svg>